<?xml version="1.0" encoding="UTF-8"?>
<svg xmlns="http://www.w3.org/2000/svg" xmlns:xlink="http://www.w3.org/1999/xlink" width="596" height="269" viewBox="0 0 596 269">
<path fill-rule="evenodd" fill="rgb(30.705261%, 37.692261%, 56.820679%)" fill-opacity="1" d="M 348.539062 149.007812 C 347.375 149.007812 347.101562 148.558594 347.101562 147.738281 C 347.101562 144.515625 352.492188 140.160156 355.207031 140.160156 C 356.148438 140.160156 356.839844 140.597656 356.839844 141.332031 C 356.839844 142.53125 351.046875 149.007812 348.539062 149.007812 Z M 408.4375 113.304688 C 400.617188 135.023438 378.617188 149.15625 373.894531 149.15625 C 365.296875 149.15625 373.15625 132.210938 361.164062 132.210938 C 353.085938 132.210938 339.6875 140.8125 339.6875 149.867188 C 339.6875 153.996094 342.777344 158.160156 349.316406 158.160156 C 357.460938 158.160156 355.761719 147.78125 360.632812 147.78125 C 364.886719 147.78125 363.554688 155.671875 373.804688 155.671875 C 379.457031 155.671875 382.988281 150.027344 385.960938 150.027344 C 386.757812 150.027344 387.898438 150.496094 387.898438 152.980469 C 387.898438 157.085938 383.148438 169.980469 383.152344 173.339844 C 383.152344 175.554688 385.535156 177.117188 387.308594 177.117188 C 389.09375 177.117188 390.488281 176.335938 390.882812 174.902344 C 392.058594 170.566406 393.171875 166.566406 394.308594 162.882812 C 411.773438 106.238281 427.496094 123.734375 427.496094 111.476562 C 427.496094 107.097656 423.902344 105.523438 419.523438 105.523438 C 414.652344 105.523438 409.960938 109.242188 408.4375 113.304688 "/>
<path fill-rule="evenodd" fill="rgb(30.705261%, 37.692261%, 56.820679%)" fill-opacity="1" d="M 301.980469 131.671875 C 300.359375 132.828125 303.34375 138.226562 305.40625 137.277344 C 307.300781 136.40625 314.386719 132.328125 318.210938 132.328125 C 320.039062 132.328125 320.894531 133.179688 320.894531 134.261719 C 320.894531 138.226562 299.453125 149.148438 299.453125 159.089844 C 299.453125 161.472656 301.636719 164.996094 308.605469 164.996094 C 319.523438 164.996094 332.5 159.90625 332.5 155.625 C 332.5 154.90625 331.628906 154.027344 330.558594 154.027344 C 328.859375 154.027344 317.96875 158.527344 312.117188 158.527344 C 310.230469 158.527344 308.734375 157.757812 308.734375 156.457031 C 308.734375 150.410156 329.210938 141.023438 329.210938 133.910156 C 329.210938 127.597656 323.410156 125.742188 319.917969 125.742188 C 311.773438 125.742188 303.554688 130.550781 301.980469 131.671875 "/>
<path fill-rule="evenodd" fill="rgb(30.705261%, 37.692261%, 56.820679%)" fill-opacity="1" d="M 515.90625 139.363281 C 514.195312 145.824219 502.027344 147.664062 495.382812 147.664062 C 488.730469 147.664062 488.820312 145.816406 487.402344 139.054688 C 486.066406 132.660156 483.394531 131.074219 479.851562 131.074219 C 477.238281 131.074219 474.625 133.578125 471.699219 136.289062 C 466.632812 140.988281 461.671875 147.371094 458.972656 147.371094 C 456.683594 147.371094 454.917969 144.707031 454.917969 142.027344 C 454.917969 139.585938 456.828125 138.574219 456.828125 135.851562 C 456.828125 133.953125 455.777344 130.226562 452.980469 130.226562 C 448.753906 130.226562 442.101562 137.582031 440.929688 138.757812 C 437.464844 142.21875 432.65625 149.105469 427.703125 149.105469 C 420.304688 149.105469 427.046875 137.542969 418.1875 137.542969 C 413.585938 137.542969 411.714844 141.765625 411.714844 143.796875 C 411.714844 147.300781 413.980469 149.203125 416.484375 151.894531 C 419.304688 154.929688 421.460938 157.542969 425.3125 157.542969 C 436.835938 157.542969 439.40625 144.898438 445.347656 144.898438 C 447.316406 144.898438 448.21875 146.695312 448.429688 148.40625 C 448.953125 152.710938 453.566406 154.746094 458.902344 154.746094 C 469.011719 154.746094 469.222656 145.800781 475.476562 145.800781 C 483.988281 145.800781 482.421875 155.863281 491.886719 155.863281 C 495.65625 155.863281 496.265625 155.230469 501.972656 154.476562 C 508.90625 153.566406 514.734375 153.144531 517.894531 151.253906 C 525.011719 146.992188 521.277344 134.351562 528.6875 134.351562 C 531.21875 134.351562 533.148438 136.0625 533.148438 140.238281 C 533.148438 145.410156 531.332031 157.449219 505.601562 170.640625 C 502.964844 172.046875 501.144531 173.769531 501.144531 175.277344 C 501.144531 176.839844 502.746094 177.714844 504.261719 177.714844 C 510.058594 177.714844 541.476562 160.742188 541.476562 141.402344 C 541.476562 130.269531 536.605469 126.871094 529.488281 126.871094 C 518.113281 126.871094 517.46875 133.488281 515.90625 139.363281 "/>
<path fill-rule="evenodd" fill="rgb(30.705261%, 37.692261%, 56.820679%)" fill-opacity="1" d="M 294.457031 65.085938 C 275.183594 65.085938 239.523438 77.789062 201.84375 131.851562 C 176.136719 139.128906 87.632812 166.507812 87.632812 186.824219 C 87.632812 190.980469 93.894531 196.855469 102.925781 196.855469 C 107.234375 196.855469 110.527344 195.234375 110.527344 192.824219 C 110.527344 188.125 99.285156 188.378906 99.285156 185.027344 C 99.285156 175.945312 150.933594 156.296875 195.496094 142.964844 C 178.355469 175.667969 187.898438 216.367188 228.332031 216.367188 C 247.535156 216.367188 266.683594 204.632812 278.402344 197.511719 C 280.671875 196.128906 278.941406 192.675781 276.273438 194.058594 C 264.203125 200.308594 248.613281 208.199219 232.136719 208.199219 C 188.691406 208.199219 193.617188 165.03125 208.375 139.214844 C 221.238281 135.640625 240.628906 130.960938 260.945312 130.960938 C 276.039062 130.960938 280.011719 136.683594 282.945312 137.675781 C 285.886719 138.625 287.867188 136.261719 285.992188 133.691406 C 282.996094 129.582031 277.433594 122.558594 257.355469 122.558594 C 248.726562 122.464844 231.539062 124.648438 214.785156 128.515625 C 233.234375 103.710938 263.324219 73.09375 295.902344 73.09375 C 305.160156 73.09375 317.578125 76.359375 317.578125 71.925781 C 317.578125 66.023438 299.492188 65.082031 294.457031 65.085938 "/>
<path fill-rule="nonzero" fill="rgb(5.270386%, 17.401123%, 34.44519%)" fill-opacity="1" d="M 53.464844 107.660156 L 63.175781 107.660156 L 63.175781 87.707031 L 72.515625 87.707031 L 83.132812 107.660156 L 93.976562 107.660156 L 82.984375 87.707031 C 81.925781 85.824219 81.175781 85.074219 81.175781 85.074219 L 81.175781 84.917969 C 86.820312 82.660156 90.210938 76.714844 90.210938 70.3125 C 90.210938 63.234375 86.820312 58.109375 81.476562 55.703125 C 79.140625 54.648438 76.507812 54.195312 70.710938 54.195312 L 53.464844 54.195312 Z M 63.175781 79.269531 L 63.175781 62.554688 L 70.554688 62.554688 C 78.167969 62.554688 80.34375 65.71875 80.34375 70.839844 C 80.34375 76.1875 77.109375 79.269531 71.914062 79.269531 Z M 98.949219 101.261719 C 98.949219 101.261719 105.496094 108.5625 117.398438 108.5625 C 128.539062 108.5625 135.015625 101.410156 135.015625 92.902344 C 135.015625 75.808594 109.863281 78.140625 109.863281 68.65625 C 109.863281 64.886719 113.40625 62.253906 117.921875 62.253906 C 124.625 62.253906 129.742188 66.925781 129.742188 66.925781 L 133.964844 59.019531 C 133.964844 59.019531 128.539062 53.292969 118 53.292969 C 107.757812 53.292969 100.074219 59.921875 100.074219 68.808594 C 100.074219 85.21875 125.304688 83.566406 125.304688 93.125 C 125.304688 97.496094 121.613281 99.601562 117.546875 99.601562 C 110.019531 99.601562 104.214844 93.957031 104.214844 93.957031 Z M 143.074219 107.660156 L 152.785156 107.660156 L 155.046875 77.765625 C 155.269531 74.226562 155.117188 69.410156 155.117188 69.410156 L 155.269531 69.410156 C 155.269531 69.410156 156.929688 74.675781 158.203125 77.765625 L 166.789062 98.472656 L 175.300781 98.472656 L 183.957031 77.765625 C 185.238281 74.675781 186.820312 69.480469 186.820312 69.480469 L 186.972656 69.480469 C 186.972656 69.480469 186.820312 74.226562 187.046875 77.765625 L 189.308594 107.660156 L 198.945312 107.660156 L 194.65625 54.195312 L 184.257812 54.195312 L 173.796875 80.628906 C 172.59375 83.792969 171.15625 88.460938 171.15625 88.460938 L 171.011719 88.460938 C 171.011719 88.460938 169.503906 83.792969 168.296875 80.628906 L 157.832031 54.195312 L 147.4375 54.195312 L 143.074219 107.660156 "/>
</svg>
