<?xml version="1.0" encoding="utf-8"?>
<!-- Generator: Adobe Illustrator 26.1.0, SVG Export Plug-In . SVG Version: 6.00 Build 0)  -->
<svg version="1.1" id="Laag_1" xmlns="http://www.w3.org/2000/svg" xmlns:xlink="http://www.w3.org/1999/xlink" x="0px" y="0px"
	 viewBox="0 0 389.2 66" style="enable-background:new 0 0 389.2 66;" xml:space="preserve">
<style type="text/css">
	.st0{fill-rule:evenodd;clip-rule:evenodd;fill:#747798;}
	.st1{fill:#171C54;}
</style>
<g>
	<path class="st0" d="M100.7,27.5c-2,5.4-7.4,8.9-8.6,8.9c-2.1,0-0.2-4.2-3.2-4.2c-2,0-5.4,2.1-5.4,4.4c0,1,0.8,2.1,2.4,2.1
		c2,0,1.6-2.6,2.8-2.6c1.1,0,0.7,2,3.3,2c1.4,0,2.3-1.4,3-1.4c0.2,0,0.5,0.1,0.5,0.7c0,1-1.2,4.2-1.2,5.1c0,0.6,0.6,0.9,1,0.9
		c0.4,0,0.8-0.2,0.9-0.6c0.3-1.1,0.6-2.1,0.9-3c4.4-14.1,8.3-9.8,8.3-12.8c0-1.1-0.9-1.5-2-1.5C102.2,25.6,101.1,26.5,100.7,27.5z
		 M85.8,36.4c-0.3,0-0.4-0.1-0.4-0.3c0-0.8,1.3-1.9,2-1.9c0.2,0,0.4,0.1,0.4,0.3C87.8,34.8,86.4,36.4,85.8,36.4z"/>
	<path class="st0" d="M74.1,32.1c-0.4,0.3,0.3,1.6,0.9,1.4c0.5-0.2,2.2-1.2,3.2-1.2c0.5,0,0.7,0.2,0.7,0.5c0,1-5.3,3.7-5.3,6.2
		c0,0.6,0.5,1.5,2.3,1.5c2.7,0,6-1.3,6-2.3c0-0.2-0.2-0.4-0.5-0.4c-0.4,0-3.1,1.1-4.6,1.1c-0.5,0-0.8-0.2-0.8-0.5
		c0-1.5,5.1-3.9,5.1-5.6c0-1.6-1.4-2-2.3-2C76.6,30.6,74.5,31.8,74.1,32.1z"/>
	<path class="st0" d="M127.5,34c-0.4,1.6-3.5,2.1-5.1,2.1c-1.7,0-1.6-0.5-2-2.1c-0.3-1.6-1-2-1.9-2c-0.7,0-1.3,0.6-2,1.3
		c-1.3,1.2-2.5,2.8-3.2,2.8c-0.6,0-1-0.7-1-1.3c0-0.6,0.5-0.9,0.5-1.5c0-0.5-0.3-1.4-1-1.4c-1.1,0-2.7,1.8-3,2.1
		c-0.9,0.9-2.1,2.6-3.3,2.6c-1.8,0-0.2-2.9-2.4-2.9c-1.1,0-1.6,1.1-1.6,1.6c0,0.9,0.6,1.3,1.2,2c0.7,0.8,1.2,1.4,2.2,1.4
		c2.9,0,3.5-3.2,5-3.2c0.5,0,0.7,0.4,0.8,0.9c0.1,1.1,1.3,1.6,2.6,1.6c2.5,0,2.6-2.2,4.1-2.2c2.1,0,1.7,2.5,4.1,2.5
		c0.9,0,1.1-0.2,2.5-0.3c1.7-0.2,3.2-0.3,4-0.8c1.8-1.1,0.8-4.2,2.7-4.2c0.6,0,1.1,0.4,1.1,1.5c0,1.3-0.5,4.3-6.9,7.6
		c-0.7,0.4-1.1,0.8-1.1,1.2c0,0.4,0.4,0.6,0.8,0.6c1.4,0,9.3-4.2,9.3-9.1c0-2.8-1.2-3.6-3-3.6C128.1,30.9,127.9,32.5,127.5,34z"/>
	<path class="st0" d="M72.3,15.5c-4.8,0-13.7,3.2-23.1,16.7c-6.4,1.8-28.5,8.6-28.5,13.7c0,1,1.6,2.5,3.8,2.5c1.1,0,1.9-0.4,1.9-1
		c0-1.2-2.8-1.1-2.8-1.9c0-2.3,12.9-7.2,24-10.5c-4.3,8.2-1.9,18.3,8.2,18.3c4.8,0,9.6-2.9,12.5-4.7c0.6-0.3,0.1-1.2-0.5-0.9
		c-3,1.6-6.9,3.5-11,3.5c-10.8,0-9.6-10.8-5.9-17.2c3.2-0.9,8-2.1,13.1-2.1c3.8,0,4.8,1.4,5.5,1.7c0.7,0.2,1.2-0.4,0.8-1
		c-0.7-1-2.1-2.8-7.1-2.8c-2.2,0-6.4,0.5-10.6,1.5c4.6-6.2,12.1-13.8,20.2-13.8c2.3,0,5.4,0.8,5.4-0.3C78,15.7,73.5,15.5,72.3,15.5z
		"/>
	<g>
		<path class="st1" d="M34.5,26.1h2.4l0.6-7.5c0.1-0.9,0-2.1,0-2.1h0c0,0,0.4,1.3,0.7,2.1l2.1,5.2h2.1l2.2-5.2
			c0.3-0.8,0.7-2.1,0.7-2.1h0c0,0,0,1.2,0,2.1l0.6,7.5h2.4l-1.1-13.3h-2.6l-2.6,6.6c-0.3,0.8-0.7,2-0.7,2h0c0,0-0.4-1.2-0.7-2
			l-2.6-6.6h-2.6L34.5,26.1z M23.5,24.5c0,0,1.6,1.8,4.6,1.8c2.8,0,4.4-1.8,4.4-3.9c0-4.3-6.3-3.7-6.3-6c0-0.9,0.9-1.6,2-1.6
			c1.7,0,2.9,1.2,2.9,1.2l1.1-2c0,0-1.4-1.4-4-1.4c-2.6,0-4.5,1.7-4.5,3.9c0,4.1,6.3,3.7,6.3,6.1c0,1.1-0.9,1.6-1.9,1.6
			c-1.9,0-3.3-1.4-3.3-1.4L23.5,24.5z M14.6,19v-4.2h1.8c1.9,0,2.4,0.8,2.4,2.1c0,1.3-0.8,2.1-2.1,2.1H14.6z M12.1,26.1h2.4v-5h2.3
			l2.6,5h2.7l-2.7-5c-0.3-0.5-0.5-0.7-0.5-0.7v0c1.4-0.6,2.3-2,2.3-3.6c0-1.8-0.8-3-2.2-3.6c-0.6-0.3-1.2-0.4-2.7-0.4h-4.3V26.1z"/>
	</g>
	<rect x="142.8" y="26" class="st1" width="0.9" height="27.2"/>
	<g>
		<path class="st1" d="M152.8,26.1h3.2c1.1,0,1.6,0.1,2,0.3c1,0.4,1.6,1.4,1.6,2.7c0,1.2-0.6,2.3-1.7,2.7v0c0,0,0.1,0.1,0.3,0.5
			l2,3.7h-2l-2-3.7h-1.7V36h-1.8V26.1z M156.2,30.7c1,0,1.6-0.6,1.6-1.6c0-0.9-0.4-1.5-1.8-1.5h-1.4v3.1H156.2z"/>
		<path class="st1" d="M165,28.7c2.2,0,3.9,1.5,3.9,3.7c0,2.2-1.7,3.7-3.9,3.7c-2.2,0-3.9-1.5-3.9-3.7
			C161.1,30.3,162.9,28.7,165,28.7z M165,34.6c1.1,0,2.1-0.9,2.1-2.2c0-1.3-1-2.2-2.1-2.2c-1.2,0-2.1,0.9-2.1,2.2
			C162.9,33.7,163.9,34.6,165,34.6z"/>
		<path class="st1" d="M170.7,30.4h-0.9V29h1v-2h1.7v2h1.6v1.4h-1.6v2.7c0,1.2,0.9,1.3,1.4,1.3c0.2,0,0.3,0,0.3,0V36
			c0,0-0.2,0-0.5,0c-1,0-2.9-0.3-2.9-2.7V30.4z"/>
		<path class="st1" d="M176,30.4h-0.9V29h1v-2h1.7v2h1.6v1.4h-1.6v2.7c0,1.2,0.9,1.3,1.4,1.3c0.2,0,0.3,0,0.3,0V36c0,0-0.2,0-0.5,0
			c-1,0-2.9-0.3-2.9-2.7V30.4z"/>
		<path class="st1" d="M184.1,28.7c2,0,3.1,1.5,3.1,3.4c0,0.2,0,0.7,0,0.7h-4.9c0.1,1.2,1.1,1.9,2.1,1.9c1.1,0,2-0.8,2-0.8l0.7,1.3
			c0,0-1.1,1-2.8,1c-2.3,0-3.8-1.7-3.8-3.7C180.5,30.2,182,28.7,184.1,28.7z M185.4,31.5c0-1-0.6-1.5-1.4-1.5
			c-0.9,0-1.5,0.6-1.7,1.5H185.4z"/>
		<path class="st1" d="M188.7,28.9h1.7v1.2c0,0.3,0,0.5,0,0.5h0c0.3-1,1.2-1.8,2.2-1.8c0.2,0,0.3,0,0.3,0v1.7c0,0-0.2,0-0.4,0
			c-0.7,0-1.6,0.4-1.9,1.5c-0.1,0.3-0.2,0.7-0.2,1.1V36h-1.8V28.9z"/>
		<path class="st1" d="M196.9,28.7c1.6,0,2,0.9,2,0.9h0c0,0,0-0.2,0-0.4v-3.1h1.8V36h-1.7v-0.6c0-0.3,0-0.5,0-0.5h0
			c0,0-0.6,1.2-2.2,1.2c-1.9,0-3.1-1.5-3.1-3.7C193.7,30.2,195.1,28.7,196.9,28.7z M197.3,34.6c0.9,0,1.8-0.7,1.8-2.2
			c0-1.1-0.6-2.2-1.8-2.2c-1,0-1.8,0.8-1.8,2.2C195.5,33.8,196.2,34.6,197.3,34.6z"/>
		<path class="st1" d="M206.4,31.5h0.2v-0.1c0-0.9-0.6-1.2-1.4-1.2c-1,0-1.9,0.7-1.9,0.7l-0.7-1.3c0,0,1.1-0.9,2.8-0.9
			c1.9,0,2.9,1,2.9,2.8V36h-1.6v-0.6c0-0.3,0-0.5,0-0.5h0c0,0-0.5,1.2-2.1,1.2c-1.3,0-2.4-0.8-2.4-2.2
			C202.2,31.7,205.2,31.5,206.4,31.5z M205,34.7c0.9,0,1.6-1,1.6-1.9v-0.2h-0.3c-0.9,0-2.4,0.1-2.4,1.1
			C203.9,34.3,204.3,34.7,205,34.7z"/>
		<path class="st1" d="M210.2,28.9h1.7v0.8c0,0.3,0,0.5,0,0.5h0c0.3-0.7,1.2-1.5,2.3-1.5c1.1,0,1.8,0.5,2.1,1.5h0
			c0.4-0.8,1.3-1.5,2.4-1.5c1.5,0,2.3,0.8,2.3,2.7V36h-1.8v-4.2c0-0.8-0.2-1.4-1-1.4c-0.9,0-1.5,0.7-1.7,1.6
			c-0.1,0.3-0.1,0.6-0.1,0.9V36h-1.8v-4.2c0-0.8-0.1-1.4-1-1.4c-0.9,0-1.5,0.7-1.7,1.6c-0.1,0.3-0.1,0.6-0.1,0.9V36h-1.8V28.9z"/>
		<path class="st1" d="M226.9,33.4c0,0,1.1,1,2.5,1c0.7,0,1.4-0.4,1.4-1.2c0-1.8-4.6-1.5-4.6-4.5c0-1.6,1.4-2.9,3.3-2.9
			c1.9,0,2.9,1.1,2.9,1.1l-0.8,1.5c0,0-0.9-0.9-2.2-0.9c-0.8,0-1.5,0.5-1.5,1.2c0,1.7,4.6,1.3,4.6,4.5c0,1.6-1.2,2.9-3.2,2.9
			c-2.2,0-3.4-1.3-3.4-1.3L226.9,33.4z"/>
		<path class="st1" d="M237.5,28.7c1.8,0,2.7,1.1,2.7,1.1l-0.8,1.2c0,0-0.7-0.8-1.8-0.8c-1.3,0-2.1,1-2.1,2.2c0,1.2,0.9,2.2,2.2,2.2
			c1.2,0,2.1-0.9,2.1-0.9l0.7,1.2c0,0-1,1.2-2.9,1.2c-2.3,0-3.8-1.6-3.8-3.7C233.6,30.4,235.1,28.7,237.5,28.7z"/>
		<path class="st1" d="M241.8,26.1h1.8v3.4c0,0.3,0,0.6,0,0.6h0c0.3-0.7,1.2-1.4,2.4-1.4c1.6,0,2.5,0.8,2.5,2.7V36h-1.7v-4.2
			c0-0.9-0.2-1.4-1.1-1.4c-0.9,0-1.6,0.6-1.9,1.5c-0.1,0.3-0.1,0.6-0.1,0.9V36h-1.8V26.1z"/>
		<path class="st1" d="M253.7,28.7c2.2,0,3.9,1.5,3.9,3.7c0,2.2-1.7,3.7-3.9,3.7c-2.2,0-3.9-1.5-3.9-3.7
			C249.8,30.3,251.5,28.7,253.7,28.7z M253.7,34.6c1.1,0,2.1-0.9,2.1-2.2c0-1.3-1-2.2-2.1-2.2c-1.1,0-2.1,0.9-2.1,2.2
			C251.6,33.7,252.5,34.6,253.7,34.6z"/>
		<path class="st1" d="M262.4,28.7c2.2,0,3.9,1.5,3.9,3.7c0,2.2-1.7,3.7-3.9,3.7c-2.2,0-3.9-1.5-3.9-3.7
			C258.5,30.3,260.3,28.7,262.4,28.7z M262.4,34.6c1.1,0,2.1-0.9,2.1-2.2c0-1.3-1-2.2-2.1-2.2c-1.2,0-2.1,0.9-2.1,2.2
			C260.3,33.7,261.3,34.6,262.4,34.6z"/>
		<path class="st1" d="M267.7,26.1h1.7v7.4c0,0.8,0.3,1,0.7,1c0.1,0,0.3,0,0.3,0V36c0,0-0.3,0-0.6,0c-1,0-2.2-0.2-2.2-2.3V26.1z"/>
		<path class="st1" d="M278.6,28.7c2.2,0,3.9,1.5,3.9,3.7c0,2.2-1.7,3.7-3.9,3.7c-2.2,0-3.9-1.5-3.9-3.7
			C274.7,30.3,276.4,28.7,278.6,28.7z M278.6,34.6c1.1,0,2.1-0.9,2.1-2.2c0-1.3-1-2.2-2.1-2.2c-1.1,0-2.1,0.9-2.1,2.2
			C276.5,33.7,277.5,34.6,278.6,34.6z"/>
		<path class="st1" d="M284.3,30.4h-0.9V29h0.9v-0.3c0-2.3,1.9-2.6,2.9-2.6c0.4,0,0.6,0,0.6,0v1.5c0,0-0.2,0-0.4,0
			c-0.5,0-1.4,0.1-1.4,1.1V29h1.5v1.4h-1.5V36h-1.8V30.4z"/>
		<path class="st1" d="M293.1,26.1h1.9l1.9,4.9c0.2,0.6,0.5,1.4,0.5,1.4h0c0,0,0.3-0.9,0.5-1.4l1.9-4.9h1.9l0.8,9.8h-1.8l-0.4-5.5
			c0-0.7,0-1.5,0-1.5h0c0,0-0.3,1-0.5,1.5l-1.6,3.8h-1.6l-1.6-3.8c-0.2-0.6-0.5-1.5-0.5-1.5h0c0,0,0,0.9,0,1.5L294,36h-1.8
			L293.1,26.1z"/>
		<path class="st1" d="M308.1,31.5h0.2v-0.1c0-0.9-0.6-1.2-1.4-1.2c-1,0-1.9,0.7-1.9,0.7l-0.7-1.3c0,0,1.1-0.9,2.8-0.9
			c1.9,0,2.9,1,2.9,2.8V36h-1.6v-0.6c0-0.3,0-0.5,0-0.5h0c0,0-0.5,1.2-2.1,1.2c-1.3,0-2.4-0.8-2.4-2.2
			C303.9,31.7,307,31.5,308.1,31.5z M306.8,34.7c0.9,0,1.6-1,1.6-1.9v-0.2h-0.3c-0.9,0-2.4,0.1-2.4,1.1
			C305.7,34.3,306,34.7,306.8,34.7z"/>
		<path class="st1" d="M312,28.9h1.7v0.8c0,0.3,0,0.5,0,0.5h0c0.3-0.6,1.1-1.5,2.5-1.5c1.6,0,2.5,0.8,2.5,2.7V36h-1.7v-4.2
			c0-0.9-0.2-1.4-1.1-1.4c-0.9,0-1.6,0.6-1.9,1.4c-0.1,0.3-0.1,0.6-0.1,0.9V36H312V28.9z"/>
		<path class="st1" d="M324.1,31.5h0.2v-0.1c0-0.9-0.6-1.2-1.4-1.2c-1,0-1.9,0.7-1.9,0.7l-0.7-1.3c0,0,1.1-0.9,2.8-0.9
			c1.9,0,2.9,1,2.9,2.8V36h-1.6v-0.6c0-0.3,0-0.5,0-0.5h0c0,0-0.5,1.2-2.1,1.2c-1.3,0-2.4-0.8-2.4-2.2C320,31.7,323,31.5,324.1,31.5
			z M322.8,34.7c0.9,0,1.6-1,1.6-1.9v-0.2h-0.3c-0.9,0-2.4,0.1-2.4,1.1C321.7,34.3,322.1,34.7,322.8,34.7z"/>
		<path class="st1" d="M330.7,37.4c1.1,0,2-0.5,2-1.7v-0.4c0-0.2,0-0.4,0-0.4h0c-0.4,0.6-1,1-2,1c-2,0-3.2-1.6-3.2-3.6
			s1.1-3.5,3.1-3.5c1.5,0,2.1,0.9,2.1,0.9h0c0,0,0-0.1,0-0.2v-0.5h1.6v6.6c0,2.4-1.9,3.3-3.7,3.3c-0.9,0-1.8-0.2-2.5-0.6l0.5-1.3
			C328.7,36.9,329.6,37.4,330.7,37.4z M332.7,32.3c0-1.6-0.8-2-1.7-2c-1.1,0-1.7,0.8-1.7,2c0,1.2,0.6,2.1,1.8,2.1
			C331.9,34.3,332.7,33.8,332.7,32.3z"/>
		<path class="st1" d="M339.6,28.7c2,0,3.1,1.5,3.1,3.4c0,0.2,0,0.7,0,0.7h-4.9c0.1,1.2,1.1,1.9,2.1,1.9c1.1,0,2-0.8,2-0.8l0.7,1.3
			c0,0-1.1,1-2.8,1c-2.3,0-3.8-1.7-3.8-3.7C336,30.2,337.4,28.7,339.6,28.7z M340.9,31.5c0-1-0.6-1.5-1.4-1.5
			c-0.9,0-1.5,0.6-1.7,1.5H340.9z"/>
		<path class="st1" d="M344.2,28.9h1.7v0.8c0,0.3,0,0.5,0,0.5h0c0.3-0.7,1.2-1.5,2.3-1.5c1.1,0,1.8,0.5,2.1,1.5h0
			c0.4-0.8,1.3-1.5,2.4-1.5c1.5,0,2.3,0.8,2.3,2.7V36h-1.8v-4.2c0-0.8-0.2-1.4-1-1.4c-0.9,0-1.5,0.7-1.7,1.6
			c-0.1,0.3-0.1,0.6-0.1,0.9V36h-1.8v-4.2c0-0.8-0.1-1.4-1-1.4c-0.9,0-1.5,0.7-1.7,1.6c-0.1,0.3-0.1,0.6-0.1,0.9V36h-1.8V28.9z"/>
		<path class="st1" d="M360,28.7c2,0,3.1,1.5,3.1,3.4c0,0.2,0,0.7,0,0.7h-4.9c0.1,1.2,1.1,1.9,2.1,1.9c1.1,0,2-0.8,2-0.8l0.7,1.3
			c0,0-1.1,1-2.8,1c-2.3,0-3.8-1.7-3.8-3.7C356.4,30.2,357.9,28.7,360,28.7z M361.4,31.5c0-1-0.6-1.5-1.4-1.5
			c-0.9,0-1.5,0.6-1.7,1.5H361.4z"/>
		<path class="st1" d="M364.7,28.9h1.7v0.8c0,0.3,0,0.5,0,0.5h0c0.3-0.6,1.1-1.5,2.5-1.5c1.6,0,2.5,0.8,2.5,2.7V36h-1.7v-4.2
			c0-0.9-0.2-1.4-1.1-1.4c-0.9,0-1.6,0.6-1.9,1.4c-0.1,0.3-0.1,0.6-0.1,0.9V36h-1.8V28.9z"/>
		<path class="st1" d="M373.5,30.4h-0.9V29h1v-2h1.7v2h1.6v1.4h-1.6v2.7c0,1.2,0.9,1.3,1.4,1.3c0.2,0,0.3,0,0.3,0V36
			c0,0-0.2,0-0.5,0c-1,0-2.9-0.3-2.9-2.7V30.4z"/>
		<path class="st1" d="M152.8,43.3h5.9v1.5h-4.1v2.6h3.3v1.5h-3.3v2.6h4.3v1.5h-6.1V43.3z"/>
		<path class="st1" d="M160.6,46h1.7v1.2c0,0.3,0,0.5,0,0.5h0c0.3-1,1.2-1.8,2.2-1.8c0.2,0,0.3,0,0.3,0v1.7c0,0-0.2,0-0.4,0
			c-0.7,0-1.6,0.4-1.9,1.5c-0.1,0.3-0.2,0.7-0.2,1.1v2.8h-1.8V46z"/>
		<path class="st1" d="M169.7,48.7h0.2v-0.1c0-0.9-0.6-1.2-1.4-1.2c-1,0-1.9,0.7-1.9,0.7l-0.7-1.3c0,0,1.1-0.9,2.8-0.9
			c1.9,0,2.9,1,2.9,2.8v4.4H170v-0.6c0-0.3,0-0.5,0-0.5h0c0,0-0.5,1.2-2.1,1.2c-1.3,0-2.4-0.8-2.4-2.2
			C165.5,48.8,168.5,48.7,169.7,48.7z M168.3,51.9c0.9,0,1.6-1,1.6-1.9v-0.2h-0.3c-0.9,0-2.4,0.1-2.4,1.1
			C167.3,51.5,167.6,51.9,168.3,51.9z"/>
		<path class="st1" d="M173.8,51c0,0,0.8,0.8,1.9,0.8c0.5,0,0.9-0.2,0.9-0.6c0-1.1-3.4-0.9-3.4-3.2c0-1.3,1.2-2.1,2.7-2.1
			c1.6,0,2.4,0.8,2.4,0.8l-0.7,1.3c0,0-0.7-0.6-1.7-0.6c-0.5,0-0.9,0.2-0.9,0.6c0,1,3.4,0.9,3.4,3.1c0,1.2-1,2.1-2.7,2.1
			c-1.8,0-2.7-1-2.7-1L173.8,51z"/>
		<path class="st1" d="M179.9,46h1.7v0.8c0,0.3,0,0.5,0,0.5h0c0.3-0.7,1.2-1.5,2.3-1.5c1.1,0,1.8,0.5,2.1,1.5h0
			c0.4-0.8,1.3-1.5,2.4-1.5c1.5,0,2.3,0.8,2.3,2.7v4.5h-1.8v-4.2c0-0.8-0.2-1.4-1-1.4c-0.9,0-1.5,0.7-1.7,1.6
			c-0.1,0.3-0.1,0.6-0.1,0.9v3.1h-1.8v-4.2c0-0.8-0.1-1.4-1-1.4c-0.9,0-1.5,0.7-1.7,1.6c-0.1,0.3-0.1,0.6-0.1,0.9v3.1h-1.8V46z"/>
		<path class="st1" d="M192.5,46h1.8v4.2c0,0.9,0.2,1.4,1.1,1.4c1.3,0,2-1.1,2-2.4V46h1.8v7.1h-1.7v-0.8c0-0.3,0-0.5,0-0.5h0
			c-0.3,0.7-1.2,1.5-2.5,1.5c-1.5,0-2.5-0.8-2.5-2.7V46z"/>
		<path class="st1" d="M201.3,51c0,0,0.8,0.8,1.9,0.8c0.5,0,0.9-0.2,0.9-0.6c0-1.1-3.4-0.9-3.4-3.2c0-1.3,1.2-2.1,2.7-2.1
			c1.6,0,2.4,0.8,2.4,0.8l-0.7,1.3c0,0-0.7-0.6-1.7-0.6c-0.5,0-0.9,0.2-0.9,0.6c0,1,3.4,0.9,3.4,3.1c0,1.2-1,2.1-2.7,2.1
			c-1.8,0-2.7-1-2.7-1L201.3,51z"/>
		<path class="st1" d="M211,43.3h1.8v6.3c0,1.3,0.9,2.1,2.2,2.1s2.2-0.7,2.2-2.1v-6.3h1.8v6.3c0,2.2-1.6,3.7-4,3.7
			c-2.4,0-4-1.5-4-3.7V43.3z"/>
		<path class="st1" d="M221.1,46h1.7v0.8c0,0.3,0,0.5,0,0.5h0c0.3-0.6,1.1-1.5,2.5-1.5c1.6,0,2.5,0.8,2.5,2.7v4.5H226v-4.2
			c0-0.9-0.2-1.4-1.1-1.4c-0.9,0-1.6,0.6-1.9,1.4c-0.1,0.3-0.1,0.6-0.1,0.9v3.2h-1.8V46z"/>
		<path class="st1" d="M229.6,43.3h1.7v1.6h-1.7V43.3z M229.6,46h1.8v7.1h-1.8V46z"/>
		<path class="st1" d="M232.4,46h1.9l1.5,4.4c0.1,0.4,0.2,1.1,0.2,1.1h0c0,0,0.1-0.7,0.2-1.1l1.5-4.4h1.9l-2.5,7.1H235L232.4,46z"/>
		<path class="st1" d="M243.8,45.9c2,0,3.1,1.5,3.1,3.4c0,0.2,0,0.7,0,0.7H242c0.1,1.2,1.1,1.9,2.1,1.9c1.1,0,2-0.8,2-0.8l0.7,1.3
			c0,0-1.1,1-2.8,1c-2.3,0-3.8-1.7-3.8-3.7C240.2,47.4,241.7,45.9,243.8,45.9z M245.1,48.7c0-1-0.6-1.5-1.4-1.5
			c-0.9,0-1.5,0.6-1.7,1.5H245.1z"/>
		<path class="st1" d="M248.4,46h1.7v1.2c0,0.3,0,0.5,0,0.5h0c0.3-1,1.2-1.8,2.2-1.8c0.2,0,0.3,0,0.3,0v1.7c0,0-0.2,0-0.4,0
			c-0.7,0-1.6,0.4-1.9,1.5c-0.1,0.3-0.2,0.7-0.2,1.1v2.8h-1.8V46z"/>
		<path class="st1" d="M254.1,51c0,0,0.8,0.8,1.9,0.8c0.5,0,0.9-0.2,0.9-0.6c0-1.1-3.4-0.9-3.4-3.2c0-1.3,1.2-2.1,2.7-2.1
			c1.6,0,2.4,0.8,2.4,0.8L258,48c0,0-0.7-0.6-1.7-0.6c-0.5,0-0.9,0.2-0.9,0.6c0,1,3.4,0.9,3.4,3.1c0,1.2-1,2.1-2.7,2.1
			c-1.8,0-2.7-1-2.7-1L254.1,51z"/>
		<path class="st1" d="M260.3,43.3h1.7v1.6h-1.7V43.3z M260.3,46h1.8v7.1h-1.8V46z"/>
		<path class="st1" d="M264.3,47.6h-0.9v-1.4h1v-2h1.7v2h1.6v1.4h-1.6v2.7c0,1.2,0.9,1.3,1.4,1.3c0.2,0,0.3,0,0.3,0v1.5
			c0,0-0.2,0-0.5,0c-1,0-2.9-0.3-2.9-2.7V47.6z"/>
		<path class="st1" d="M269,54.2c0,0,0.4,0.3,0.8,0.3c0.5,0,1-0.3,1.2-0.9l0.3-0.6l-3-7h2l1.5,4.1c0.1,0.4,0.3,1,0.3,1h0
			c0,0,0.1-0.6,0.2-0.9l1.4-4.1h1.9l-3.2,8.1c-0.5,1.3-1.5,1.8-2.5,1.8c-0.8,0-1.5-0.5-1.5-0.5L269,54.2z"/>
	</g>
</g>
</svg>
